<svg width="25" height="24" viewBox="0 0 25 24" fill="none" xmlns="http://www.w3.org/2000/svg">
<path d="M2.625 9.88014C2.625 8.92659 3.07832 8.02983 3.84615 7.46442L12.625 1L21.4038 7.46443C22.1717 8.02983 22.625 8.92659 22.625 9.88014V20.5C22.625 21.8807 21.5057 23 20.125 23H16.625C16.0727 23 15.625 22.5523 15.625 22V16C15.625 15.7239 15.4011 15.5 15.125 15.5H10.125C9.84886 15.5 9.625 15.7239 9.625 16V22C9.625 22.5523 9.17728 23 8.625 23H5.125C3.74429 23 2.625 21.8807 2.625 20.5V9.88014Z" stroke="#14142B" stroke-width="2" stroke-linecap="round" stroke-linejoin="round"/>
</svg>
