<svg width="179" height="135" viewBox="0 0 179 135" fill="none" xmlns="http://www.w3.org/2000/svg">
<path d="M30.442 0.632324C23.671 1.76082 22.9187 2.51315 22.3545 7.77948C21.7902 13.0458 20.8498 13.9862 15.3954 14.9266C11.8218 15.679 8.62439 16.8075 8.06014 17.5598C5.99123 20.9453 -1.15593 115.363 0.160654 121.946L1.47724 129.093L15.0192 127.588C39.8462 124.767 65.2374 126.084 75.3939 130.598C86.3027 135.3 92.6975 135.488 100.785 131.538C111.694 126.084 133.135 124.203 154.765 126.836C165.674 127.965 175.078 128.717 176.018 128.153C176.959 127.588 178.087 124.015 178.84 120.065C180.156 111.977 173.009 26.7759 170.564 20.381C169.624 18.124 166.614 15.8671 163.229 15.1147C158.715 14.1743 157.398 12.8577 157.398 9.47223C157.398 2.32507 152.696 0.256149 136.145 0.256149C115.832 0.0680695 104.547 3.45357 95.8949 12.2935L88.9359 19.2525L83.6695 13.0458C80.6602 9.84839 75.2058 5.71057 71.2561 4.2059C62.7923 0.820404 41.1628 -1.06042 30.442 0.632324ZM66.3659 10.6007C73.1369 12.6696 81.2245 20.5691 83.8576 27.9044C85.1742 31.1018 85.9265 49.1578 85.9265 71.7277C85.9265 103.138 85.3623 110.097 83.2934 110.097C81.9768 110.097 79.7198 108.968 78.5913 107.464C74.4535 102.573 54.1405 95.05 39.0938 92.793L23.8591 90.7241V83.9531C23.8591 80.1915 25.1757 62.6997 26.6804 45.208C28.185 27.5282 29.5016 12.2935 29.5016 10.9769C29.5016 6.65098 53.012 6.4629 66.3659 10.6007ZM142.54 7.77948L149.311 8.90797L151.568 41.2583C152.696 58.9381 154.201 77.3702 154.765 82.0723L155.893 90.9122L144.044 92.2288C127.117 94.1096 110.377 99.7521 101.349 106.335L93.4499 111.977V70.035C93.4499 29.2209 93.6379 27.7163 97.7758 21.5095C102.666 14.1743 109.061 10.6007 121.286 8.53181C133.135 6.65098 134.64 6.4629 142.54 7.77948ZM19.9094 30.5375C19.9094 34.4873 18.7809 50.2863 17.4643 65.8971C16.1477 81.32 15.3954 95.05 15.7715 95.9904C16.1477 97.1189 24.4234 98.9998 34.2037 100.128C47.3695 101.633 55.0809 103.702 63.9208 108.028C70.3156 111.225 73.513 113.482 70.8799 112.918C68.2467 112.354 60.3472 110.473 53.012 108.968C44.9244 107.087 33.6394 106.335 23.8591 106.711C10.5052 107.087 7.87206 106.899 8.24823 104.454C8.43631 102.95 9.94097 84.1412 11.8218 62.5117C14.2669 32.9826 15.7715 23.5785 17.6524 23.5785C19.3451 23.5785 20.0975 26.0235 19.9094 30.5375ZM163.793 31.4779C165.11 40.8821 170.564 100.693 170.564 104.83C170.564 106.899 167.555 107.275 154.201 106.711C141.975 106.147 133.512 106.899 121.662 109.72C112.822 111.789 105.487 113.294 105.299 113.106C104.923 112.918 108.497 110.849 113.01 108.404C122.415 103.89 143.292 98.8117 154.201 98.8117C158.715 98.8117 161.724 97.8713 162.288 95.9904C163.417 93.1692 160.219 42.0106 158.15 29.5971C157.398 25.0831 157.962 23.5785 160.031 23.5785C161.912 23.5785 163.229 26.2116 163.793 31.4779Z" fill="#FCFCFC"/>
</svg>
